{
  "accessors": [
    {
      "bufferView": 2,
      "componentType": 5126,
      "count": 27193,
      "max": [
        5.0482864379882812,
        3.4148538112640381,
        0.98166310787200928
      ],
      "min": [
        -5.0482864379882812,
        -2.4502866268157959,
        -0.99956274032592773
      ],
      "type": "VEC3"
    },
    {
      "bufferView": 2,
      "byteOffset": 326316,
      "componentType": 5126,
      "count": 27193,
      "max": [
        1,
        1,
        1
      ],
      "min": [
        -1,
        -1,
        -1
      ],
      "type": "VEC3"
    },
    {
      "bufferView": 1,
      "componentType": 5126,
      "count": 27193,
      "max": [
        0.96598696708679199,
        0.99983060359954834
      ],
      "min": [
        0.00016946789401117712,
        0.00016946789401117712
      ],
      "type": "VEC2"
    },
    {
      "bufferView": 1,
      "byteOffset": 217544,
      "componentType": 5126,
      "count": 27193,
      "max": [
        0.96598696708679199,
        0.99983060359954834
      ],
      "min": [
        0.00016946789401117712,
        0.00016946789401117712
      ],
      "type": "VEC2"
    },
    {
      "bufferView": 0,
      "componentType": 5125,
      "count": 156480,
      "max": [
        27192
      ],
      "min": [
        0
      ],
      "type": "SCALAR"
    },
    {
      "bufferView": 2,
      "byteOffset": 652632,
      "componentType": 5126,
      "count": 432,
      "max": [
        5.8786873817443848,
        3.4271759986877441,
        2.4328799247741699
      ],
      "min": [
        -5.8786873817443848,
        -2.4650087356567383,
        -1
      ],
      "type": "VEC3"
    },
    {
      "bufferView": 2,
      "byteOffset": 657816,
      "componentType": 5126,
      "count": 432,
      "max": [
        0.98987191915512085,
        0.98987108469009399,
        0.98987102508544922
      ],
      "min": [
        -0.9898717999458313,
        -0.98987114429473877,
        -0.98987114429473877
      ],
      "type": "VEC3"
    },
    {
      "bufferView": 1,
      "byteOffset": 435088,
      "componentType": 5126,
      "count": 432,
      "max": [
        0.93674951791763306,
        0.99971842765808105
      ],
      "min": [
        0.00028156419284641743,
        0.00028156419284641743
      ],
      "type": "VEC2"
    },
    {
      "bufferView": 1,
      "byteOffset": 438544,
      "componentType": 5126,
      "count": 432,
      "max": [
        0.93674951791763306,
        0.99971842765808105
      ],
      "min": [
        0.00028156419284641743,
        0.00028156419284641743
      ],
      "type": "VEC2"
    },
    {
      "bufferView": 0,
      "byteOffset": 625920,
      "componentType": 5125,
      "count": 1800,
      "max": [
        431
      ],
      "min": [
        0
      ],
      "type": "SCALAR"
    },
    {
      "bufferView": 2,
      "byteOffset": 663000,
      "componentType": 5126,
      "count": 7257,
      "max": [
        5.0484766960144043,
        1.0894254446029663,
        0.75102114677429199
      ],
      "min": [
        -5.0484766960144043,
        -0.92116928100585938,
        -1.057077169418335
      ],
      "type": "VEC3"
    },
    {
      "bufferView": 2,
      "byteOffset": 750084,
      "componentType": 5126,
      "count": 7257,
      "max": [
        1,
        1,
        0.99999994039535522
      ],
      "min": [
        -1,
        -0.99704855680465698,
        -0.99985259771347046
      ],
      "type": "VEC3"
    },
    {
      "bufferView": 1,
      "byteOffset": 442000,
      "componentType": 5126,
      "count": 7257,
      "max": [
        0.487496018409729,
        0.99991303682327271
      ],
      "min": [
        8.6957596067804843e-05,
        8.6957596067804843e-05
      ],
      "type": "VEC2"
    },
    {
      "bufferView": 1,
      "byteOffset": 500056,
      "componentType": 5126,
      "count": 7257,
      "max": [
        0.487496018409729,
        0.99991303682327271
      ],
      "min": [
        8.6957596067804843e-05,
        8.6957596067804843e-05
      ],
      "type": "VEC2"
    },
    {
      "bufferView": 0,
      "byteOffset": 633120,
      "componentType": 5125,
      "count": 39120,
      "max": [
        7256
      ],
      "min": [
        0
      ],
      "type": "SCALAR"
    },
    {
      "bufferView": 2,
      "byteOffset": 837168,
      "componentType": 5126,
      "count": 4800,
      "max": [
        5.5771985054016113,
        2.6012139320373535,
        0.05064721405506134
      ],
      "min": [
        -5.5771923065185547,
        -2.6012134552001953,
        -0.050647206604480743
      ],
      "type": "VEC3"
    },
    {
      "bufferView": 2,
      "byteOffset": 894768,
      "componentType": 5126,
      "count": 4800,
      "max": [
        1,
        1,
        1
      ],
      "min": [
        -1,
        -1,
        -1
      ],
      "type": "VEC3"
    },
    {
      "bufferView": 1,
      "byteOffset": 558112,
      "componentType": 5126,
      "count": 4800,
      "max": [
        0.96816211938858032,
        0.9993937611579895
      ],
      "min": [
        0.0006062455358915031,
        0.0006062455358915031
      ],
      "type": "VEC2"
    },
    {
      "bufferView": 1,
      "byteOffset": 596512,
      "componentType": 5126,
      "count": 4800,
      "max": [
        0.96816211938858032,
        0.9993937611579895
      ],
      "min": [
        0.0006062455358915031,
        0.0006062455358915031
      ],
      "type": "VEC2"
    },
    {
      "bufferView": 0,
      "byteOffset": 789600,
      "componentType": 5125,
      "count": 7200,
      "max": [
        4799
      ],
      "min": [
        0
      ],
      "type": "SCALAR"
    }
  ],
  "asset": {
    "extras": {
      "author": "ivansky (https://sketchfab.com/ivansky)",
      "license": "CC-BY-4.0 (http://creativecommons.org/licenses/by/4.0/)",
      "source": "https://sketchfab.com/3d-models/leather-couch-b9c6af846a784919b7f2afcc023680ba",
      "title": "Leather couch"
    },
    "generator": "Sketchfab-9.35.0",
    "version": "2.0"
  },
  "bufferViews": [
    {
      "buffer": 0,
      "byteLength": 818400,
      "byteOffset": 0,
      "name": "floatBufferViews",
      "target": 34963
    },
    {
      "buffer": 0,
      "byteLength": 634912,
      "byteOffset": 818400,
      "byteStride": 8,
      "name": "floatBufferViews",
      "target": 34962
    },
    {
      "buffer": 0,
      "byteLength": 952368,
      "byteOffset": 1453312,
      "byteStride": 12,
      "name": "floatBufferViews",
      "target": 34962
    }
  ],
  "buffers": [
    {
      "byteLength": 2405680,
      "uri": "scene.bin"
    }
  ],
  "images": [
    {
      "uri": "textures/Seat_cover_baseColor.png"
    },
    {
      "uri": "textures/Seat_cover_metallicRoughness.png"
    },
    {
      "uri": "textures/Arm_cover_baseColor.png"
    },
    {
      "uri": "textures/Arm_cover_metallicRoughness.png"
    },
    {
      "uri": "textures/Back_cover_baseColor.png"
    },
    {
      "uri": "textures/Back_cover_metallicRoughness.png"
    },
    {
      "uri": "textures/legs_baseColor.png"
    },
    {
      "uri": "textures/legs_metallicRoughness.png"
    }
  ],
  "materials": [
    {
      "doubleSided": true,
      "emissiveFactor": [
        0,
        0,
        0
      ],
      "name": "Seat_cover",
      "pbrMetallicRoughness": {
        "baseColorFactor": [
          1,
          1,
          1,
          1
        ],
        "baseColorTexture": {
          "index": 0,
          "texCoord": 0
        },
        "metallicFactor": 1,
        "metallicRoughnessTexture": {
          "index": 1,
          "texCoord": 0
        },
        "roughnessFactor": 1
      }
    },
    {
      "doubleSided": true,
      "emissiveFactor": [
        0,
        0,
        0
      ],
      "name": "Arm_cover",
      "pbrMetallicRoughness": {
        "baseColorFactor": [
          1,
          1,
          1,
          1
        ],
        "baseColorTexture": {
          "index": 2,
          "texCoord": 0
        },
        "metallicFactor": 1,
        "metallicRoughnessTexture": {
          "index": 3,
          "texCoord": 0
        },
        "roughnessFactor": 1
      }
    },
    {
      "doubleSided": true,
      "emissiveFactor": [
        0,
        0,
        0
      ],
      "name": "Back_cover",
      "pbrMetallicRoughness": {
        "baseColorFactor": [
          1,
          1,
          1,
          1
        ],
        "baseColorTexture": {
          "index": 4,
          "texCoord": 0
        },
        "metallicFactor": 1,
        "metallicRoughnessTexture": {
          "index": 5,
          "texCoord": 0
        },
        "roughnessFactor": 1
      }
    },
    {
      "doubleSided": true,
      "emissiveFactor": [
        0,
        0,
        0
      ],
      "name": "legs",
      "pbrMetallicRoughness": {
        "baseColorFactor": [
          1,
          1,
          1,
          1
        ],
        "baseColorTexture": {
          "index": 6,
          "texCoord": 0
        },
        "metallicFactor": 1,
        "metallicRoughnessTexture": {
          "index": 7,
          "texCoord": 0
        },
        "roughnessFactor": 1
      }
    }
  ],
  "meshes": [
    {
      "name": "couch_Seat cover_0",
      "primitives": [
        {
          "attributes": {
            "NORMAL": 1,
            "POSITION": 0,
            "TEXCOORD_0": 2,
            "TEXCOORD_1": 3
          },
          "indices": 4,
          "material": 0,
          "mode": 4
        }
      ]
    },
    {
      "name": "Cube.002_Arm cover_0",
      "primitives": [
        {
          "attributes": {
            "NORMAL": 6,
            "POSITION": 5,
            "TEXCOORD_0": 7,
            "TEXCOORD_1": 8
          },
          "indices": 9,
          "material": 1,
          "mode": 4
        }
      ]
    },
    {
      "name": "Cube.001_Back cover_0",
      "primitives": [
        {
          "attributes": {
            "NORMAL": 11,
            "POSITION": 10,
            "TEXCOORD_0": 12,
            "TEXCOORD_1": 13
          },
          "indices": 14,
          "material": 2,
          "mode": 4
        }
      ]
    },
    {
      "name": "Cube.003_legs_0",
      "primitives": [
        {
          "attributes": {
            "NORMAL": 16,
            "POSITION": 15,
            "TEXCOORD_0": 17,
            "TEXCOORD_1": 18
          },
          "indices": 19,
          "material": 3,
          "mode": 4
        }
      ]
    }
  ],
  "nodes": [
    {
      "children": [
        1
      ],
      "name": "RootNode (gltf orientation matrix)",
      "rotation": [
        -0.70710678118654746,
        -0,
        -0,
        0.70710678118654757
      ]
    },
    {
      "children": [
        2
      ],
      "name": "RootNode (model correction matrix)"
    },
    {
      "children": [
        3
      ],
      "matrix": [
        1,
        0,
        0,
        0,
        0,
        0,
        1,
        0,
        0,
        -1,
        0,
        0,
        0,
        0,
        0,
        1
      ],
      "name": "59542f2834114cf2a72ac2f2b8c34f42.fbx"
    },
    {
      "children": [
        4
      ],
      "name": "RootNode"
    },
    {
      "children": [
        5,
        6,
        8,
        10
      ],
      "matrix": [
        100,
        0,
        0,
        0,
        0,
        -1.6292067939183141e-05,
        -99.999999999998678,
        0,
        0,
        99.999999999998678,
        -1.6292067939183141e-05,
        0,
        0,
        110.73719024658203,
        0,
        1
      ],
      "name": "couch"
    },
    {
      "mesh": 0,
      "name": "couch_Seat cover_0"
    },
    {
      "children": [
        7
      ],
      "matrix": [
        1,
        0,
        0,
        0,
        0,
        1,
        -2.646977960169688e-23,
        0,
        0,
        2.646977960169688e-23,
        1,
        0,
        0,
        -4.5519144009631418e-15,
        -0.0059989690780639648,
        1
      ],
      "name": "Cube.002"
    },
    {
      "mesh": 1,
      "name": "Cube.002_Arm cover_0"
    },
    {
      "children": [
        9
      ],
      "matrix": [
        1,
        0,
        0,
        0,
        0,
        1,
        -2.646977960169688e-23,
        0,
        0,
        2.646977960169688e-23,
        1,
        0,
        0,
        2.3273286819458008,
        1.6019017696380615,
        1
      ],
      "name": "Cube.001"
    },
    {
      "mesh": 2,
      "name": "Cube.001_Back cover_0"
    },
    {
      "children": [
        11
      ],
      "matrix": [
        1,
        0,
        0,
        0,
        0,
        1,
        -2.646977960169688e-23,
        0,
        0,
        2.646977960169688e-23,
        1,
        0,
        -3.460206698946422e-06,
        0.46464940905570984,
        -1.0565292835235596,
        1
      ],
      "name": "Cube.003"
    },
    {
      "mesh": 3,
      "name": "Cube.003_legs_0"
    }
  ],
  "samplers": [
    {
      "magFilter": 9729,
      "minFilter": 9987,
      "wrapS": 10497,
      "wrapT": 10497
    }
  ],
  "scene": 0,
  "scenes": [
    {
      "name": "OSG_Scene",
      "nodes": [
        0
      ]
    }
  ],
  "textures": [
    {
      "sampler": 0,
      "source": 0
    },
    {
      "sampler": 0,
      "source": 1
    },
    {
      "sampler": 0,
      "source": 2
    },
    {
      "sampler": 0,
      "source": 3
    },
    {
      "sampler": 0,
      "source": 4
    },
    {
      "sampler": 0,
      "source": 5
    },
    {
      "sampler": 0,
      "source": 6
    },
    {
      "sampler": 0,
      "source": 7
    }
  ]
}

